<?xml version="1.0" encoding="UTF-8"?>
<svg version="1.1" xmlns="http://www.w3.org/2000/svg" width="100" height="100">
<path d="M0 0 C2.80151367 1.09814453 2.80151367 1.09814453 5.66796875 2.6328125 C6.72693359 3.19226563 7.78589844 3.75171875 8.87695312 4.328125 C9.96943359 4.92109375 11.06191406 5.5140625 12.1875 6.125 C13.7972168 6.97964844 13.7972168 6.97964844 15.43945312 7.8515625 C17.58236397 8.99237408 19.71904244 10.14497474 21.84912109 11.30957031 C23.94890514 12.43609322 26.07253453 13.51925712 28.21728516 14.55761719 C29.21421387 15.05165039 30.21114258 15.54568359 31.23828125 16.0546875 C32.13200439 16.47991699 33.02572754 16.90514648 33.9465332 17.34326172 C36 19 36 19 36.89526367 22.04736328 C37 25 37 25 35.4375 27.1875 C32.75388631 29.18300761 30.04065794 30.61788276 27 32 C30.36475374 34.86068578 30.36475374 34.86068578 34.25 36.875 C36 38 36 38 36.9375 40.9375 C37 44 37 44 36 45.625 C33.09953946 47.61906662 30.08849686 49.31006775 27 51 C29.18705216 52.70104057 31.1871506 54.09139913 33.6875 55.3125 C36 57 36 57 37 60 C37 63 37 63 35.87207031 64.48657227 C33.42478444 66.46501842 30.85182107 67.78641462 28.046875 69.21484375 C27.17920502 69.66036339 27.17920502 69.66036339 26.29400635 70.11488342 C24.44872886 71.06119908 22.59960518 71.99967542 20.75 72.9375 C18.91937677 73.87116131 17.08961573 74.80647105 15.26062012 75.74331665 C13.52090557 76.63364854 11.77902881 77.51975142 10.03710938 78.40576172 C7.62446203 79.67220763 5.32372682 80.9997948 3.015625 82.44140625 C-0.43549893 84.22508299 -2.16446582 84.30117772 -6 84 C-8.58618164 83.00952148 -8.58618164 83.00952148 -11.16015625 81.62109375 C-12.58980713 80.8623999 -12.58980713 80.8623999 -14.04833984 80.08837891 C-15.0430127 79.54358887 -16.03768555 78.99879883 -17.0625 78.4375 C-18.0829541 77.88755371 -19.1034082 77.33760742 -20.15478516 76.77099609 C-22.18125815 75.67877895 -24.20572895 74.58283756 -26.22802734 73.48291016 C-28.58606315 72.221442 -30.95580298 71.01859357 -33.36328125 69.85546875 C-34.52214844 69.28441406 -35.68101563 68.71335937 -36.875 68.125 C-37.86242187 67.65320313 -38.84984375 67.18140625 -39.8671875 66.6953125 C-42 65 -42 65 -42.91796875 61.94140625 C-43 59 -43 59 -41.4375 56.8125 C-38.75388631 54.81699239 -36.04065794 53.38211724 -33 52 C-34.95002555 49.72497019 -36.29334194 48.87679639 -39.125 47.6875 C-42 46 -42 46 -43.0625 43 C-43 40 -43 40 -42 38.375 C-39.09953946 36.38093338 -36.08849686 34.68993225 -33 33 C-35.18705216 31.29895943 -37.1871506 29.90860087 -39.6875 28.6875 C-42 27 -42 27 -43 24 C-43 21 -43 21 -41.90380859 19.52929688 C-39.29847916 17.43648031 -36.51777616 16.04589197 -33.5390625 14.53125 C-32.91148041 14.20966919 -32.28389832 13.88808838 -31.63729858 13.5567627 C-29.63593074 12.53238356 -27.63070466 11.51585762 -25.625 10.5 C-23.62717717 9.48275993 -21.63021649 8.46386998 -19.63412476 7.4432373 C-17.81839207 6.51566158 -16.00032048 5.5926685 -14.18212891 4.66992188 C-11.04345168 3.09713082 -11.04345168 3.09713082 -8.45458984 1.28320312 C-5.34877433 -0.3404458 -3.46930438 -0.40153599 0 0 Z " fill="#0760AE" transform="translate(53,8)"/>
<path d="M0 0 C2.80151367 1.09814453 2.80151367 1.09814453 5.66796875 2.6328125 C6.72693359 3.19226563 7.78589844 3.75171875 8.87695312 4.328125 C9.96943359 4.92109375 11.06191406 5.5140625 12.1875 6.125 C13.7972168 6.97964844 13.7972168 6.97964844 15.43945312 7.8515625 C17.58236397 8.99237408 19.71904244 10.14497474 21.84912109 11.30957031 C23.94890514 12.43609322 26.07253453 13.51925712 28.21728516 14.55761719 C29.21421387 15.05165039 30.21114258 15.54568359 31.23828125 16.0546875 C32.13200439 16.47991699 33.02572754 16.90514648 33.9465332 17.34326172 C36 19 36 19 36.89086914 22.04785156 C37 25 37 25 35.5078125 27.1796875 C32.47935137 29.37791629 29.32875177 30.75717752 25.875 32.125 C18.56361813 35.13381316 11.78453515 38.78350399 5.02880859 42.88720703 C3.95687256 43.5153833 3.95687256 43.5153833 2.86328125 44.15625 C2.23719971 44.53587891 1.61111816 44.91550781 0.96606445 45.30664062 C-2.45957502 46.51473898 -5.13353421 45.37084414 -8.36499023 43.98779297 C-9.57457397 43.37121826 -9.57457397 43.37121826 -10.80859375 42.7421875 C-11.71456299 42.28481201 -12.62053223 41.82743652 -13.55395508 41.35620117 C-14.5055249 40.86740479 -15.45709473 40.3786084 -16.4375 39.875 C-18.40848793 38.86777259 -20.37984252 37.86126236 -22.3515625 36.85546875 C-23.31223633 36.36481934 -24.27291016 35.87416992 -25.26269531 35.36865234 C-27.66348566 34.16825717 -30.07683382 33.02881309 -32.5234375 31.92578125 C-33.1738501 31.62623535 -33.8242627 31.32668945 -34.49438477 31.01806641 C-36.19433404 30.24148155 -37.90351481 29.48519406 -39.61328125 28.73046875 C-42 27 -42 27 -43.04296875 23.98828125 C-43 21 -43 21 -41.90112305 19.5300293 C-39.29777017 17.43484341 -36.5176937 16.04585005 -33.5390625 14.53125 C-32.91148041 14.20966919 -32.28389832 13.88808838 -31.63729858 13.5567627 C-29.63593074 12.53238356 -27.63070466 11.51585762 -25.625 10.5 C-23.62717717 9.48275993 -21.63021649 8.46386998 -19.63412476 7.4432373 C-17.81839207 6.51566158 -16.00032048 5.5926685 -14.18212891 4.66992188 C-11.04345168 3.09713082 -11.04345168 3.09713082 -8.45458984 1.28320312 C-5.34877433 -0.3404458 -3.46930438 -0.40153599 0 0 Z " fill="#52C3F4" transform="translate(53,8)"/>
<path d="M0 0 C3.85713327 1.52829809 6.90846246 2.90964997 10.3125 5.3125 C11.4375 8.375 11.4375 8.375 11.3125 11.3125 C8.4966327 15.88828437 1.80694386 18.17499549 -3.0625 20 C-8.87915744 22.21032983 -14.23408856 25.22599675 -19.62255859 28.31518555 C-20.31945801 28.70101807 -21.01635742 29.08685059 -21.734375 29.484375 C-22.35151367 29.8359668 -22.96865234 30.18755859 -23.60449219 30.54980469 C-27.42131125 31.94733666 -30.6049468 31.71691221 -34.38134766 30.30615234 C-35.27901855 29.84160645 -36.17668945 29.37706055 -37.1015625 28.8984375 C-38.11089844 28.38410156 -39.12023437 27.86976562 -40.16015625 27.33984375 C-41.20042969 26.79457031 -42.24070312 26.24929687 -43.3125 25.6875 C-44.32957031 25.16542969 -45.34664062 24.64335938 -46.39453125 24.10546875 C-48.45077301 23.04998344 -50.50191988 21.98451357 -52.54785156 20.90917969 C-54.70461029 19.81235215 -56.89176777 18.77393905 -59.10058594 17.78613281 C-60.18887695 17.29209961 -61.27716797 16.79806641 -62.3984375 16.2890625 C-63.3889209 15.85932129 -64.3794043 15.42958008 -65.39990234 14.98681641 C-67.6875 13.3125 -67.6875 13.3125 -68.58056641 10.22802734 C-68.6875 7.3125 -68.6875 7.3125 -67.6875 5.6875 C-67.0275 5.23375 -66.3675 4.78 -65.6875 4.3125 C-64.615 3.57 -63.5425 2.8275 -62.4375 2.0625 C-59.52471266 0.1483826 -57.16049693 0.11202336 -53.74804688 0.71582031 C-49.42376702 1.96801699 -45.52149525 4.20727357 -41.5625 6.3125 C-39.8128186 7.23473324 -38.06029419 8.15159698 -36.3046875 9.0625 C-35.53753418 9.46984375 -34.77038086 9.8771875 -33.97998047 10.296875 C-30.32802892 11.91477899 -27.96972331 12.80030102 -24.13208008 11.34033203 C-23.24931396 10.83872559 -22.36654785 10.33711914 -21.45703125 9.8203125 C-20.48958984 9.28019531 -19.52214844 8.74007812 -18.52539062 8.18359375 C-17.52701172 7.60738281 -16.52863281 7.03117187 -15.5 6.4375 C-13.9850293 5.58478516 -13.9850293 5.58478516 -12.43945312 4.71484375 C-10.57416149 3.66429154 -8.71222373 2.60774711 -6.85473633 1.54345703 C-2.85255169 -0.72972253 -2.85255169 -0.72972253 0 0 Z " fill="#118BE3" transform="translate(78.6875,40.6875)"/>
<path d="M0 0 C-2.54065934 1.43930464 -5.08248022 2.87648839 -7.625 4.3125 C-8.69427734 4.91868164 -8.69427734 4.91868164 -9.78515625 5.53710938 C-21.97535872 12.41506765 -21.97535872 12.41506765 -30 12 C-30 11.34 -30 10.68 -30 10 C-29.21882813 10.11472656 -28.43765625 10.22945312 -27.6328125 10.34765625 C-22.26749755 9.83420138 -18.44482504 7.16808687 -13.875 4.4375 C-12.10821869 3.38329499 -10.33499655 2.3397892 -8.5546875 1.30859375 C-7.77593262 0.84251709 -6.99717773 0.37644043 -6.19482422 -0.10375977 C-3.64118214 -1.14652062 -2.53999778 -0.9540356 0 0 Z " fill="#1284D3" transform="translate(76,43)"/>
<path d="M0 0 C6.14413354 0.47969149 11.00342146 3.27709515 16.375 6.0625 C17.30183594 6.53494141 18.22867188 7.00738281 19.18359375 7.49414062 C21.45953591 8.65557502 23.73138773 9.82433067 26 11 C25.34 11.66 24.68 12.32 24 13 C22.85402344 12.38511719 21.70804688 11.77023438 20.52734375 11.13671875 C18.99747547 10.32016329 17.46752306 9.50376541 15.9375 8.6875 C15.18533203 8.28337891 14.43316406 7.87925781 13.65820312 7.46289062 C9.17989837 5.07833874 4.69416341 2.92629016 0 1 C0 0.67 0 0.34 0 0 Z " fill="#1C8CD8" transform="translate(21,41)"/>
</svg>
